<?xml version="1.0" standalone="no"?>
<!DOCTYPE svg PUBLIC "-//W3C//DTD SVG 20010904//EN"
 "http://www.w3.org/TR/2001/REC-SVG-20010904/DTD/svg10.dtd">
<svg version="1.0" xmlns="http://www.w3.org/2000/svg"
 width="125.000000pt" height="125.000000pt" viewBox="0 0 125.000000 125.000000"
 preserveAspectRatio="xMidYMid meet">

<g transform="translate(0.000000,125.000000) scale(0.100000,-0.100000)"
fill="#000000" stroke="none">
<path d="M570 1220 c-43 -23 -34 -26 13 -4 32 15 36 15 75 -5 23 -12 42 -19
42 -16 0 6 -76 45 -87 45 -4 -1 -24 -9 -43 -20z"/>
<path d="M901 985 l-74 -33 51 -26 c29 -15 52 -24 52 -21 0 2 -13 11 -30 20
-16 9 -30 20 -30 26 0 6 4 8 9 5 5 -4 11 -2 13 3 1 4 26 20 53 34 70 36 45 32
-44 -8z"/>
<path d="M71 908 c1 -36 3 -45 8 -28 4 19 13 26 35 27 29 2 84 -21 99 -41 6
-7 7 -7 5 2 -2 7 -36 31 -76 53 l-72 41 1 -54z"/>
<path d="M533 884 c15 -8 25 -20 21 -25 -3 -6 -33 -22 -65 -36 -33 -14 -58
-28 -56 -30 3 -2 40 13 83 32 l79 37 -35 18 c-19 11 -39 19 -45 19 -5 0 3 -7
18 -15z"/>
<path d="M910 850 c-19 -11 -30 -19 -25 -19 6 0 26 8 45 19 19 11 31 19 25 19
-5 0 -26 -8 -45 -19z"/>
<path d="M990 846 c0 -3 18 -15 40 -27 21 -12 37 -26 35 -30 -10 -15 7 -38 23
-33 9 3 -12 -11 -48 -31 -77 -42 -71 -42 38 4 l81 34 -27 15 c-85 44 -142 72
-142 68z m100 -60 c0 -3 -4 -8 -10 -11 -5 -3 -10 -1 -10 4 0 6 5 11 10 11 6 0
10 -2 10 -4z"/>
<path d="M810 805 c-14 -8 -20 -14 -15 -14 6 0 21 6 35 14 14 8 21 14 15 14
-5 0 -21 -6 -35 -14z"/>
<path d="M910 665 c-14 -8 -20 -14 -15 -14 6 0 21 6 35 14 14 8 21 14 15 14
-5 0 -21 -6 -35 -14z"/>
<path d="M1080 586 c-58 -26 -75 -38 -76 -55 -1 -16 -1 -16 3 -3 5 22 88 59
120 54 19 -3 23 -11 26 -55 3 -44 4 -41 5 21 1 39 1 72 0 72 -2 0 -37 -16 -78
-34z"/>
<path d="M70 370 c0 -55 3 -100 8 -100 4 0 6 19 4 43 -3 31 2 53 18 80 19 32
24 35 43 26 22 -10 22 -10 2 6 -11 9 -32 23 -47 31 l-28 15 0 -101z"/>
<path d="M520 213 c8 -3 32 -14 53 -25 20 -10 37 -16 37 -13 0 7 -78 45 -92
44 -9 0 -8 -2 2 -6z"/>
<path d="M690 210 c-11 -7 -5 -8 20 -4 43 8 51 14 19 14 -13 0 -31 -5 -39 -10z"/>
<path d="M470 200 c-8 -5 -10 -10 -5 -10 6 0 17 5 25 10 8 5 11 10 5 10 -5 0
-17 -5 -25 -10z"/>
<path d="M767 199 c7 -7 15 -10 18 -7 3 3 -2 9 -12 12 -14 6 -15 5 -6 -5z"/>
</g>
</svg>
